<?xml version="1.0" encoding="utf-8"?>
<!-- Generator: Adobe Illustrator 24.1.2, SVG Export Plug-In . SVG Version: 6.00 Build 0)  -->
<svg version="1.1" id="Layer_1" xmlns="http://www.w3.org/2000/svg" xmlns:xlink="http://www.w3.org/1999/xlink" x="0px" y="0px"
	 viewBox="0 0 512 512" style="enable-background:new 0 0 512 512;" xml:space="preserve">
<style type="text/css">
	.st0{fill:#E74D3C;}
</style>
<path class="st0" d="M208,432h-48c-8.8,0-16-7.2-16-16V96c0-8.8,7.2-16,16-16h48c8.8,0,16,7.2,16,16v320
	C224,424.8,216.8,432,208,432z"/>
<path class="st0" d="M352,432h-48c-8.8,0-16-7.2-16-16V96c0-8.8,7.2-16,16-16h48c8.8,0,16,7.2,16,16v320
	C368,424.8,360.8,432,352,432z"/>
</svg>
